<?xml version="1.0" encoding="UTF-8" standalone="no"?>
<svg
   xmlns:dc="http://purl.org/dc/elements/1.1/"
   xmlns:cc="http://creativecommons.org/ns#"
   xmlns:rdf="http://www.w3.org/1999/02/22-rdf-syntax-ns#"
   xmlns:svg="http://www.w3.org/2000/svg"
   xmlns="http://www.w3.org/2000/svg"
   xmlns:sodipodi="http://sodipodi.sourceforge.net/DTD/sodipodi-0.dtd"
   xmlns:inkscape="http://www.inkscape.org/namespaces/inkscape"
   inkscape:version="1.0 (4035a4fb49, 2020-05-01)"
   sodipodi:docname="logo.svg"
   viewBox="0 0 462.44692 56.686131"
   height="56.686131"
   width="462.44693"
   xml:space="preserve"
   id="svg2"
   version="1.1"><metadata
     id="metadata8"><rdf:RDF><cc:Work
         rdf:about=""><dc:format>image/svg+xml</dc:format><dc:type
           rdf:resource="http://purl.org/dc/dcmitype/StillImage" /><dc:title></dc:title></cc:Work></rdf:RDF></metadata><defs
     id="defs6"><clipPath
       id="clipPath26"
       clipPathUnits="userSpaceOnUse"><path
         id="path24"
         d="M 0,595.28 H 841.89 V 0 H 0 Z" /></clipPath></defs><sodipodi:namedview
     fit-margin-bottom="0"
     fit-margin-right="0"
     fit-margin-left="0"
     fit-margin-top="0"
     inkscape:current-layer="g10"
     inkscape:window-maximized="1"
     inkscape:window-y="-9"
     inkscape:window-x="-9"
     inkscape:cy="-408.18999"
     inkscape:cx="1228.6071"
     inkscape:zoom="0.22627417"
     showgrid="false"
     id="namedview4"
     inkscape:window-height="1001"
     inkscape:window-width="1920"
     inkscape:pageshadow="2"
     inkscape:pageopacity="0"
     guidetolerance="10"
     gridtolerance="10"
     objecttolerance="10"
     borderopacity="1"
     bordercolor="#666666"
     pagecolor="#ffffff" /><g
     transform="matrix(1.3333333,0,0,-1.3333333,-330.86319,425.26599)"
     inkscape:label="twl_logo (1)"
     inkscape:groupmode="layer"
     id="g10"><g
       id="g496"><g
         id="g115"><g
           transform="translate(592.9766,305.1514)"
           id="g12"><path
             id="path14"
             style="fill:#1d1d1b;fill-opacity:1;fill-rule:nonzero;stroke:none"
             d="M 0,0 0.022,6.259 -1.581,0 h -1.71 L -4.975,6.357 -4.874,0 h -2.024 l 0.026,8.212 h 3.117 l 1.33,-5.242 1.311,5.242 H 1.98 L 2.006,0 Z M -10.065,6.531 V 0 h -2.129 v 6.531 h -2.327 v 1.681 h 6.708 V 6.531 Z" /></g><g
           transform="translate(265.3794,312.3325)"
           id="g16"><path
             id="path18"
             style="fill:#1d1d1b;fill-opacity:1;fill-rule:nonzero;stroke:none"
             d="M 0,0 V -26.994 H -8.473 V 0 h -8.759 V 6.617 H 8.716 V 0 Z" /></g><g
           id="g20"><g
             clip-path="url(#clipPath26)"
             id="g22"><g
               transform="translate(290.4702,285.3389)"
               id="g28"><path
                 id="path30"
                 style="fill:#1d1d1b;fill-opacity:1;fill-rule:nonzero;stroke:none"
                 d="m 0,0 v 12.994 c 0,1.906 0.094,4.43 -1.715,5.667 -0.62,0.428 -1.332,0.621 -2.047,0.621 -0.382,0 -1.332,-0.095 -2.192,-0.669 -1.569,-1.094 -1.761,-2.81 -1.761,-6.234 V 0 h -7.331 v 33.61 h 7.331 l 0.048,-11.379 c 0.144,0.142 0.763,0.859 1.428,1.335 2.284,1.764 4.573,1.954 5.616,1.954 3.337,0 5.242,-1.574 6.048,-2.478 0.525,-0.571 0.953,-1.284 1.189,-2 0.43,-1.095 0.669,-2.334 0.669,-4.711 L 7.283,0 Z" /></g><g
               transform="translate(315.0312,305.2393)"
               id="g32"><path
                 id="path34"
                 style="fill:#1d1d1b;fill-opacity:1;fill-rule:nonzero;stroke:none"
                 d="m 0,0 c -1,0.476 -1.809,0.476 -2.236,0.476 -2.904,0 -4.242,-2.144 -4.619,-3 -0.191,-0.429 -0.382,-0.955 -0.574,-1.902 H 2.712 C 2.616,-3.622 2.476,-1.094 0,0 m -7.476,-9 c 0,-0.236 -0.047,-0.808 0.098,-1.475 0.569,-2.901 2.618,-4.714 5.569,-4.714 0.428,0 1.381,0.048 2.381,0.429 2.473,0.857 3.57,3.381 3.903,4 l 5.524,-2.856 C 9,-15.095 8.475,-15.759 7.9,-16.426 c -3.663,-4.048 -8.424,-4.377 -10.281,-4.377 -0.764,0 -2.523,0.047 -4.474,0.665 -5.522,1.712 -8.095,6.57 -8.095,12.185 0,1.526 0.096,6.142 3.191,9.716 1.524,1.712 4.141,3.948 9.568,3.948 1.667,0 6.619,-0.187 9.712,-4.523 C 10.33,-2.666 10.235,-7.81 10.283,-9 Z" /></g><g
               transform="translate(361.9219,285.3389)"
               id="g36"><path
                 id="path38"
                 style="fill:#1d1d1b;fill-opacity:1;fill-rule:nonzero;stroke:none"
                 d="M 0,0 H -8.664 L -14.71,21.517 -20.807,0 h -8.662 l -8.523,33.61 h 8.426 l 4.948,-23.136 6.097,23.136 h 7.475 L -4.763,10.474 0.145,33.61 h 8.377 z" /></g><g
               transform="translate(386.4331,285.3389)"
               id="g40"><path
                 id="path42"
                 style="fill:#1d1d1b;fill-opacity:1;fill-rule:nonzero;stroke:none"
                 d="m 0,0 v 12.994 c 0,1.906 0.097,4.43 -1.712,5.667 -0.62,0.428 -1.332,0.621 -2.047,0.621 -0.382,0 -1.334,-0.095 -2.191,-0.669 -1.569,-1.094 -1.759,-2.81 -1.759,-6.234 V 0 h -7.335 v 33.61 h 7.335 l 0.046,-11.379 c 0.144,0.142 0.763,0.859 1.427,1.335 2.285,1.764 4.571,1.954 5.616,1.954 3.334,0 5.241,-1.574 6.051,-2.478 0.523,-0.571 0.951,-1.284 1.189,-2 0.428,-1.095 0.666,-2.334 0.666,-4.711 V 0 Z" /></g><path
               id="path44"
               style="fill:#1d1d1b;fill-opacity:1;fill-rule:nonzero;stroke:none"
               d="m 397.81,310.189 h 7.282 v -24.851 h -7.282 z m 0,8.76 h 7.282 v -5.666 h -7.282 z" /><g
               transform="translate(417.4233,305.0962)"
               id="g46"><path
                 id="path48"
                 style="fill:#1d1d1b;fill-opacity:1;fill-rule:nonzero;stroke:none"
                 d="m 0,0 v -11.141 c 0,-0.998 -0.048,-1.57 0.191,-1.997 0.424,-0.815 1.567,-0.815 1.713,-0.815 0.856,0 1.715,0.053 2.57,0.053 v -5.666 c -0.476,-0.096 -2.188,-0.383 -3.859,-0.383 -0.522,0 -1.045,0 -1.522,0.045 -0.665,0.048 -2.855,0 -4.523,1.527 -1.904,1.668 -1.807,4.188 -1.807,6.473 V 0.048 h -3.618 v 4.478 h 3.618 v 7.755 H 0 V 4.474 H 4.858 V 0 Z" /></g><g
               transform="translate(436.9873,305.2393)"
               id="g50"><path
                 id="path52"
                 style="fill:#1d1d1b;fill-opacity:1;fill-rule:nonzero;stroke:none"
                 d="m 0,0 c -0.999,0.476 -1.809,0.476 -2.236,0.476 -2.907,0 -4.237,-2.144 -4.618,-3 -0.192,-0.429 -0.382,-0.955 -0.572,-1.902 H 2.716 C 2.619,-3.622 2.475,-1.094 0,0 m -7.475,-9 c 0,-0.236 -0.046,-0.808 0.095,-1.475 0.573,-2.901 2.62,-4.714 5.571,-4.714 0.429,0 1.379,0.048 2.38,0.429 2.477,0.857 3.572,3.381 3.901,4 l 5.525,-2.856 c -0.999,-1.479 -1.521,-2.143 -2.093,-2.81 -3.667,-4.048 -8.427,-4.377 -10.284,-4.377 -0.761,0 -2.522,0.047 -4.474,0.665 -5.522,1.712 -8.095,6.57 -8.095,12.185 0,1.526 0.097,6.142 3.189,9.716 1.527,1.712 4.143,3.948 9.572,3.948 1.665,0 6.618,-0.187 9.71,-4.523 C 10.333,-2.666 10.235,-7.81 10.286,-9 Z" /></g><g
               transform="translate(449.125,285.3389)"
               id="g54"><path
                 id="path56"
                 style="fill:#1d1d1b;fill-opacity:1;fill-rule:nonzero;stroke:none"
                 d="M 0,0 V 33.61 H 8.376 V 7.094 H 21.518 V 0 Z" /></g><g
               transform="translate(487.4951,304.1934)"
               id="g58"><path
                 id="path60"
                 style="fill:#1d1d1b;fill-opacity:1;fill-rule:nonzero;stroke:none"
                 d="m 0,0 c -0.666,0.476 -1.665,0.951 -3.621,0.951 -0.329,0 -1.712,-0.095 -2.759,-0.716 -1.334,-0.761 -2.903,-2.902 -2.903,-6.57 0,-2.427 0.807,-4.237 1.283,-4.997 0.571,-0.857 2.002,-2.43 4.762,-2.43 4.045,0 5.855,3.38 5.855,7.093 C 2.617,-2.905 1.429,-1.002 0,0 m 5.667,-16.713 c -1.432,-1.191 -4.333,-2.902 -9.001,-2.902 -1.288,0 -6.331,0.235 -9.759,3.571 -1.478,1.426 -3.572,4.473 -3.572,9.66 0,1.431 0.098,5.48 2.905,8.857 1.714,2.048 5.143,4.615 11.427,4.236 2.905,-0.139 5.475,-0.808 7.807,-2.663 3.094,-2.525 4.573,-6.479 4.573,-10.473 0,-5.619 -2.667,-8.86 -4.38,-10.286" /></g><g
               transform="translate(514.0107,303.4775)"
               id="g62"><path
                 id="path64"
                 style="fill:#1d1d1b;fill-opacity:1;fill-rule:nonzero;stroke:none"
                 d="M 0,0 C -0.429,0.668 -1.668,2.142 -3.908,1.856 -5.287,1.667 -6.382,0.901 -7.141,-0.24 c -1.003,-1.477 -1.288,-3.711 -1.288,-5.471 0,-0.48 -0.05,-3.765 1.379,-5.857 1.097,-1.621 2.572,-1.811 3.332,-1.811 0.862,0 1.86,0.333 2.572,0.902 2.526,2.002 2.382,6.146 2.382,6.766 C 1.236,-5.093 1.38,-2.098 0,0 m 1.524,-18.139 -0.045,2.331 c -0.48,-0.476 -0.863,-0.856 -1.431,-1.283 -2.145,-1.573 -4.287,-1.713 -5.287,-1.713 -1.664,0.043 -5.569,0.519 -8.283,4.377 -1.189,1.713 -2.335,4.096 -2.335,8.573 0,1.426 0,7.901 4.714,11.376 0.858,0.666 2.763,1.859 5.666,1.859 3.475,0 5.572,-1.764 6.522,-2.524 v 10.615 h 7.146 v -33.611 z" /></g><g
               transform="translate(540.5234,303.1909)"
               id="g66"><path
                 id="path68"
                 style="fill:#1d1d1b;fill-opacity:1;fill-rule:nonzero;stroke:none"
                 d="m 0,0 c -0.475,0.809 -1.712,2.048 -4.093,1.954 -0.285,0 -1.383,-0.096 -2.237,-0.67 -2.288,-1.617 -2.098,-5.806 -2.098,-5.996 0,-0.621 0.047,-1.239 0.097,-1.811 0.142,-1.236 0.572,-4.615 4.57,-4.615 1.571,0 2.426,0.521 2.906,0.95 1.474,1.332 1.664,3.712 1.664,5.519 C 0.809,-3.428 0.667,-1.189 0,0 m 7.998,-18.854 c -0.144,-1.237 -0.519,-3.951 -3.428,-5.858 -3.19,-2.044 -8.092,-2.044 -8.808,-2.044 -4.57,0 -7.617,1.478 -9.045,2.663 -0.569,0.478 -0.903,0.905 -1.094,1.193 -1.381,2 -1.238,4.287 -1.238,5.048 h 7.572 c 0.092,-1.146 0.138,-1.859 0.947,-2.715 0.575,-0.67 1.62,-1.335 3.574,-1.335 0.238,0 2.187,0 3.285,1.002 1.093,0.953 1.093,2.287 1.093,3.62 l -0.047,2.713 c -0.285,-0.193 -0.855,-0.622 -1.664,-1.049 -0.718,-0.334 -2.571,-1.093 -4.859,-1.093 -4.045,0 -10.283,2.332 -10.283,11.997 0,6.666 3.523,10.14 6.048,11.281 0.761,0.334 2.38,0.857 4.525,0.857 2.615,0 4.379,-0.951 5.235,-1.523 C 0.382,5.523 0.717,5.19 1.189,4.715 v 2.284 h 6.907 v -23.852 c 0,-0.666 -0.051,-1.335 -0.098,-2.001" /></g><g
               transform="translate(565.8965,305.2393)"
               id="g70"><path
                 id="path72"
                 style="fill:#1d1d1b;fill-opacity:1;fill-rule:nonzero;stroke:none"
                 d="m 0,0 c -1,0.476 -1.807,0.476 -2.239,0.476 -2.905,0 -4.236,-2.144 -4.618,-3 -0.188,-0.429 -0.379,-0.955 -0.569,-1.902 H 2.716 C 2.621,-3.622 2.476,-1.094 0,0 m -7.476,-9 c 0,-0.236 -0.045,-0.808 0.095,-1.475 0.574,-2.901 2.622,-4.714 5.574,-4.714 0.424,0 1.378,0.048 2.377,0.429 2.474,0.857 3.572,3.381 3.904,4 l 5.523,-2.856 c -0.999,-1.479 -1.525,-2.143 -2.095,-2.81 -3.666,-4.048 -8.428,-4.377 -10.284,-4.377 -0.761,0 -2.524,0.047 -4.475,0.665 -5.521,1.712 -8.093,6.57 -8.093,12.185 0,1.526 0.095,6.142 3.189,9.716 1.526,1.712 4.142,3.948 9.57,3.948 1.665,0 6.617,-0.187 9.713,-4.523 C 10.327,-2.666 10.237,-7.81 10.283,-9 Z" /></g></g></g></g></g></g></svg>
